<svg width="24" height="24" viewBox="0 0 24 24" fill="none" xmlns="http://www.w3.org/2000/svg">
<path d="M18.9999 11.0006H7.82992L12.7099 6.12065C13.0999 5.73065 13.0999 5.09065 12.7099 4.70065C12.6174 4.60794 12.5075 4.5344 12.3865 4.48421C12.2656 4.43403 12.1359 4.4082 12.0049 4.4082C11.874 4.4082 11.7443 4.43403 11.6233 4.48421C11.5023 4.5344 11.3924 4.60794 11.2999 4.70065L4.70992 11.2906C4.61722 11.3832 4.54367 11.493 4.49349 11.614C4.44331 11.735 4.41748 11.8647 4.41748 11.9956C4.41748 12.1266 4.44331 12.2563 4.49349 12.3773C4.54367 12.4982 4.61722 12.6081 4.70992 12.7006L11.2999 19.2906C11.3925 19.3832 11.5024 19.4567 11.6234 19.5068C11.7443 19.5569 11.874 19.5827 12.0049 19.5827C12.1359 19.5827 12.2655 19.5569 12.3865 19.5068C12.5074 19.4567 12.6173 19.3832 12.7099 19.2906C12.8025 19.1981 12.8759 19.0882 12.9261 18.9672C12.9762 18.8462 13.0019 18.7166 13.0019 18.5856C13.0019 18.4547 12.9762 18.3251 12.9261 18.2041C12.8759 18.0831 12.8025 17.9732 12.7099 17.8806L7.82992 13.0006H18.9999C19.5499 13.0006 19.9999 12.5506 19.9999 12.0006C19.9999 11.4506 19.5499 11.0006 18.9999 11.0006Z" fill="#1B263A"/>
</svg>
