<svg width="24" height="24" viewBox="0 0 24 24" fill="none" xmlns="http://www.w3.org/2000/svg">
<path d="M6.70999 9.31002C6.80251 9.21732 6.91239 9.14377 7.03337 9.09359C7.15434 9.04341 7.28402 9.01758 7.41499 9.01758C7.54596 9.01758 7.67564 9.04341 7.79662 9.09359C7.91759 9.14377 8.02748 9.21732 8.11999 9.31002L12 13.19L15.88 9.31002C16.067 9.12304 16.3206 9.018 16.585 9.018C16.8494 9.018 17.103 9.12304 17.29 9.31002C17.477 9.497 17.582 9.7506 17.582 10.015C17.582 10.2794 17.477 10.533 17.29 10.72L12.7 15.31C12.6075 15.4027 12.4976 15.4763 12.3766 15.5265C12.2556 15.5766 12.126 15.6025 11.995 15.6025C11.864 15.6025 11.7343 15.5766 11.6134 15.5265C11.4924 15.4763 11.3825 15.4027 11.29 15.31L6.69999 10.72C6.31999 10.34 6.31999 9.70002 6.70999 9.31002Z" fill="#1B263A"/>
</svg>
