<svg width="24" height="24" viewBox="0 0 24 24" fill="none" xmlns="http://www.w3.org/2000/svg">
<path d="M19.23 15.2598L16.69 14.9698C16.3913 14.9347 16.0886 14.9678 15.8045 15.0665C15.5205 15.1652 15.2625 15.327 15.05 15.5398L13.21 17.3798C10.3712 15.936 8.06376 13.6286 6.61998 10.7898L8.46998 8.93977C8.89998 8.50977 9.10998 7.90977 9.03998 7.29977L8.74998 4.77977C8.69329 4.29194 8.45917 3.842 8.09222 3.51561C7.72526 3.18923 7.25109 3.00918 6.75998 3.00977H5.02998C3.89998 3.00977 2.95998 3.94977 3.02998 5.07977C3.55998 13.6198 10.39 20.4398 18.92 20.9698C20.05 21.0398 20.99 20.0998 20.99 18.9698V17.2398C21 16.2298 20.24 15.3798 19.23 15.2598Z" fill="#1B263A"/>
</svg>
