<svg width="25" height="24" viewBox="0 0 25 24" fill="none" xmlns="http://www.w3.org/2000/svg">
<path d="M13.5276 2C14.6526 2.003 15.2236 2.009 15.7166 2.023L15.9106 2.03C16.1346 2.038 16.3556 2.048 16.6226 2.06C17.6866 2.11 18.4126 2.278 19.0496 2.525C19.7096 2.779 20.2656 3.123 20.8216 3.678C21.3301 4.1779 21.7236 4.78259 21.9746 5.45C22.2216 6.087 22.3896 6.813 22.4396 7.878C22.4516 8.144 22.4616 8.365 22.4696 8.59L22.4756 8.784C22.4906 9.276 22.4966 9.847 22.4986 10.972L22.4996 11.718V13.028C22.5021 13.7574 22.4944 14.4868 22.4766 15.216L22.4706 15.41C22.4626 15.635 22.4526 15.856 22.4406 16.122C22.3906 17.187 22.2206 17.912 21.9746 18.55C21.7243 19.2178 21.3307 19.8226 20.8216 20.322C20.3216 20.8303 19.7169 21.2238 19.0496 21.475C18.4126 21.722 17.6866 21.89 16.6226 21.94C16.3853 21.9512 16.148 21.9612 15.9106 21.97L15.7166 21.976C15.2236 21.99 14.6526 21.997 13.5276 21.999L12.7816 22H11.4726C10.7429 22.0025 10.0131 21.9949 9.2836 21.977L9.0896 21.971C8.85221 21.962 8.61487 21.9517 8.3776 21.94C7.3136 21.89 6.5876 21.722 5.9496 21.475C5.28227 21.2244 4.67782 20.8308 4.1786 20.322C3.66965 19.8223 3.27582 19.2176 3.0246 18.55C2.7776 17.913 2.6096 17.187 2.5596 16.122C2.54846 15.8847 2.53846 15.6474 2.5296 15.41L2.5246 15.216C2.50617 14.4868 2.49784 13.7574 2.4996 13.028V10.972C2.49681 10.2426 2.50414 9.5132 2.5216 8.784L2.5286 8.59C2.5366 8.365 2.5466 8.144 2.5586 7.878C2.6086 6.813 2.7766 6.088 3.0236 5.45C3.27471 4.7819 3.66932 4.17702 4.1796 3.678C4.67869 3.16947 5.28274 2.77599 5.9496 2.525C6.5876 2.278 7.3126 2.11 8.3776 2.06C8.6436 2.048 8.8656 2.038 9.0896 2.03L9.2836 2.024C10.0128 2.00623 10.7422 1.99857 11.4716 2.001L13.5276 2ZM12.4996 7C11.1735 7 9.90175 7.52678 8.96407 8.46447C8.02638 9.40215 7.4996 10.6739 7.4996 12C7.4996 13.3261 8.02638 14.5979 8.96407 15.5355C9.90175 16.4732 11.1735 17 12.4996 17C13.8257 17 15.0975 16.4732 16.0351 15.5355C16.9728 14.5979 17.4996 13.3261 17.4996 12C17.4996 10.6739 16.9728 9.40215 16.0351 8.46447C15.0975 7.52678 13.8257 7 12.4996 7ZM12.4996 9C12.8936 8.99993 13.2837 9.07747 13.6477 9.22817C14.0117 9.37887 14.3424 9.5998 14.6211 9.87833C14.8997 10.1569 15.1207 10.4875 15.2715 10.8515C15.4224 11.2154 15.5 11.6055 15.5001 11.9995C15.5002 12.3935 15.4226 12.7836 15.2719 13.1476C15.1212 13.5116 14.9003 13.8423 14.6218 14.121C14.3432 14.3996 14.0126 14.6206 13.6486 14.7714C13.2847 14.9223 12.8946 14.9999 12.5006 15C11.705 15 10.9419 14.6839 10.3793 14.1213C9.81667 13.5587 9.5006 12.7956 9.5006 12C9.5006 11.2044 9.81667 10.4413 10.3793 9.87868C10.9419 9.31607 11.705 9 12.5006 9M17.7506 5.5C17.4191 5.5 17.1011 5.6317 16.8667 5.86612C16.6323 6.10054 16.5006 6.41848 16.5006 6.75C16.5006 7.08152 16.6323 7.39946 16.8667 7.63388C17.1011 7.8683 17.4191 8 17.7506 8C18.0821 8 18.4001 7.8683 18.6345 7.63388C18.8689 7.39946 19.0006 7.08152 19.0006 6.75C19.0006 6.41848 18.8689 6.10054 18.6345 5.86612C18.4001 5.6317 18.0821 5.5 17.7506 5.5Z" fill="#1B263A"/>
</svg>
