<svg width="25" height="24" viewBox="0 0 25 24" fill="none" xmlns="http://www.w3.org/2000/svg">
<path d="M17.1 5.82C16.4165 5.03962 16.0397 4.03743 16.04 3H12.95V15.4C12.9262 16.071 12.6429 16.7066 12.1598 17.1729C11.6767 17.6393 11.0315 17.8999 10.36 17.9C8.94003 17.9 7.76003 16.74 7.76003 15.3C7.76003 13.58 9.42003 12.29 11.13 12.82V9.66C7.68003 9.2 4.66003 11.88 4.66003 15.3C4.66003 18.63 7.42003 21 10.35 21C13.49 21 16.04 18.45 16.04 15.3V9.01C17.293 9.90985 18.7974 10.3926 20.34 10.39V7.3C20.34 7.3 18.46 7.39 17.1 5.82Z" fill="#1B263A"/>
</svg>
