<svg width="25" height="24" viewBox="0 0 25 24" fill="none" xmlns="http://www.w3.org/2000/svg">
<path d="M17.6665 14C17.9317 14 18.1861 13.8946 18.3736 13.7071C18.5611 13.5196 18.6665 13.2652 18.6665 13C18.6665 12.7348 18.5611 12.4804 18.3736 12.2929C18.1861 12.1054 17.9317 12 17.6665 12C17.4013 12 17.1469 12.1054 16.9594 12.2929C16.7719 12.4804 16.6665 12.7348 16.6665 13C16.6665 13.2652 16.7719 13.5196 16.9594 13.7071C17.1469 13.8946 17.4013 14 17.6665 14ZM17.6665 18C17.9317 18 18.1861 17.8946 18.3736 17.7071C18.5611 17.5196 18.6665 17.2652 18.6665 17C18.6665 16.7348 18.5611 16.4804 18.3736 16.2929C18.1861 16.1054 17.9317 16 17.6665 16C17.4013 16 17.1469 16.1054 16.9594 16.2929C16.7719 16.4804 16.6665 16.7348 16.6665 17C16.6665 17.2652 16.7719 17.5196 16.9594 17.7071C17.1469 17.8946 17.4013 18 17.6665 18ZM13.6665 13C13.6665 13.2652 13.5611 13.5196 13.3736 13.7071C13.1861 13.8946 12.9317 14 12.6665 14C12.4013 14 12.1469 13.8946 11.9594 13.7071C11.7719 13.5196 11.6665 13.2652 11.6665 13C11.6665 12.7348 11.7719 12.4804 11.9594 12.2929C12.1469 12.1054 12.4013 12 12.6665 12C12.9317 12 13.1861 12.1054 13.3736 12.2929C13.5611 12.4804 13.6665 12.7348 13.6665 13ZM13.6665 17C13.6665 17.2652 13.5611 17.5196 13.3736 17.7071C13.1861 17.8946 12.9317 18 12.6665 18C12.4013 18 12.1469 17.8946 11.9594 17.7071C11.7719 17.5196 11.6665 17.2652 11.6665 17C11.6665 16.7348 11.7719 16.4804 11.9594 16.2929C12.1469 16.1054 12.4013 16 12.6665 16C12.9317 16 13.1861 16.1054 13.3736 16.2929C13.5611 16.4804 13.6665 16.7348 13.6665 17ZM7.6665 14C7.93172 14 8.18607 13.8946 8.37361 13.7071C8.56115 13.5196 8.6665 13.2652 8.6665 13C8.6665 12.7348 8.56115 12.4804 8.37361 12.2929C8.18607 12.1054 7.93172 12 7.6665 12C7.40129 12 7.14693 12.1054 6.9594 12.2929C6.77186 12.4804 6.6665 12.7348 6.6665 13C6.6665 13.2652 6.77186 13.5196 6.9594 13.7071C7.14693 13.8946 7.40129 14 7.6665 14ZM7.6665 18C7.93172 18 8.18607 17.8946 8.37361 17.7071C8.56115 17.5196 8.6665 17.2652 8.6665 17C8.6665 16.7348 8.56115 16.4804 8.37361 16.2929C8.18607 16.1054 7.93172 16 7.6665 16C7.40129 16 7.14693 16.1054 6.9594 16.2929C6.77186 16.4804 6.6665 16.7348 6.6665 17C6.6665 17.2652 6.77186 17.5196 6.9594 17.7071C7.14693 17.8946 7.40129 18 7.6665 18Z" fill="#1B263A"/>
<path fill-rule="evenodd" clip-rule="evenodd" d="M7.66648 1.75C7.86539 1.75 8.05616 1.82902 8.19681 1.96967C8.33746 2.11032 8.41648 2.30109 8.41648 2.5V3.263C9.07848 3.25 9.80748 3.25 10.6095 3.25H14.7225C15.5255 3.25 16.2545 3.25 16.9165 3.263V2.5C16.9165 2.30109 16.9955 2.11032 17.1361 1.96967C17.2768 1.82902 17.4676 1.75 17.6665 1.75C17.8654 1.75 18.0562 1.82902 18.1968 1.96967C18.3375 2.11032 18.4165 2.30109 18.4165 2.5V3.327C18.6765 3.347 18.9225 3.372 19.1555 3.403C20.3275 3.561 21.2765 3.893 22.0255 4.641C22.7735 5.39 23.1055 6.339 23.2635 7.511C23.4165 8.651 23.4165 10.106 23.4165 11.944V14.056C23.4165 15.894 23.4165 17.35 23.2635 18.489C23.1055 19.661 22.7735 20.61 22.0255 21.359C21.2765 22.107 20.3275 22.439 19.1555 22.597C18.0155 22.75 16.5605 22.75 14.7225 22.75H10.6115C8.77348 22.75 7.31748 22.75 6.17848 22.597C5.00648 22.439 4.05748 22.107 3.30848 21.359C2.56048 20.61 2.22848 19.661 2.07048 18.489C1.91748 17.349 1.91748 15.894 1.91748 14.056V11.944C1.91748 10.106 1.91748 8.65 2.07048 7.511C2.22848 6.339 2.56048 5.39 3.30848 4.641C4.05748 3.893 5.00648 3.561 6.17848 3.403C6.41148 3.372 6.65848 3.347 6.91748 3.327V2.5C6.91748 2.30126 6.99636 2.11065 7.1368 1.97002C7.27723 1.8294 7.46774 1.75026 7.66648 1.75ZM6.37648 4.89C5.37148 5.025 4.79148 5.279 4.36848 5.702C3.94548 6.125 3.69148 6.705 3.55648 7.711C3.53348 7.881 3.51448 8.061 3.49848 8.25H21.8345C21.8185 8.06 21.7995 7.881 21.7765 7.71C21.6415 6.705 21.3875 6.125 20.9645 5.702C20.5415 5.279 19.9615 5.025 18.9555 4.89C17.9285 4.752 16.5735 4.75 14.6665 4.75H10.6665C8.75948 4.75 7.40548 4.752 6.37648 4.89ZM3.41648 12C3.41648 11.146 3.41648 10.403 3.42948 9.75H21.9035C21.9165 10.403 21.9165 11.146 21.9165 12V14C21.9165 15.907 21.9145 17.262 21.7765 18.29C21.6415 19.295 21.3875 19.875 20.9645 20.298C20.5415 20.721 19.9615 20.975 18.9555 21.11C17.9285 21.248 16.5735 21.25 14.6665 21.25H10.6665C8.75948 21.25 7.40548 21.248 6.37648 21.11C5.37148 20.975 4.79148 20.721 4.36848 20.298C3.94548 19.875 3.69148 19.295 3.55648 18.289C3.41848 17.262 3.41648 15.907 3.41648 14V12Z" fill="#1B263A"/>
</svg>
