<svg width="25" height="24" viewBox="0 0 25 24" fill="none" xmlns="http://www.w3.org/2000/svg">
<path d="M6.125 17C6.125 15 10.125 13.9 12.125 13.9C14.125 13.9 18.125 15 18.125 17V18H6.125M15.125 9C15.125 9.79565 14.8089 10.5587 14.2463 11.1213C13.6837 11.6839 12.9206 12 12.125 12C11.3294 12 10.5663 11.6839 10.0037 11.1213C9.44107 10.5587 9.125 9.79565 9.125 9C9.125 8.20435 9.44107 7.44129 10.0037 6.87868C10.5663 6.31607 11.3294 6 12.125 6C12.9206 6 13.6837 6.31607 14.2463 6.87868C14.8089 7.44129 15.125 8.20435 15.125 9ZM3.125 5V19C3.125 19.5304 3.33571 20.0391 3.71079 20.4142C4.08586 20.7893 4.59457 21 5.125 21H19.125C19.6554 21 20.1641 20.7893 20.5392 20.4142C20.9143 20.0391 21.125 19.5304 21.125 19V5C21.125 4.46957 20.9143 3.96086 20.5392 3.58579C20.1641 3.21071 19.6554 3 19.125 3H5.125C4.59457 3 4.08586 3.21071 3.71079 3.58579C3.33571 3.96086 3.125 4.46957 3.125 5Z" fill="#7D7D7D"/>
</svg>
