<svg width="24" height="24" viewBox="0 0 24 24" fill="none" xmlns="http://www.w3.org/2000/svg">
<path d="M5.92759 13.3999L6.25633 13.739L10.5873 18.2076C10.8423 18.4716 10.9834 18.8253 10.9802 19.1924C10.977 19.5594 10.8298 19.9106 10.5702 20.1701C10.3107 20.4297 9.95953 20.5769 9.59245 20.5801C9.22594 20.5833 8.87282 20.4426 8.60891 20.1884L1.41019 12.9897C1.41019 12.9896 1.41018 12.9896 1.41017 12.9896C1.14773 12.7271 1.00029 12.3711 1.00029 11.9999C1.00029 11.6286 1.14773 11.2726 1.41017 11.0101L5.92759 13.3999ZM5.92759 13.3999H6.39995H21.6C21.9713 13.3999 22.3273 13.2524 22.5899 12.9898C22.8525 12.7273 23 12.3712 23 11.9999C23 11.6286 22.8525 11.2725 22.5899 11.0099C22.3273 10.7474 21.9713 10.5999 21.6 10.5999H6.39995H5.92759L6.25633 10.2607L10.5875 5.79186L10.5875 5.79184L10.5897 5.78965C10.8522 5.52711 10.9996 5.17108 10.9996 4.79985C10.9996 4.42864 10.8522 4.07263 10.5898 3.8101C10.3272 3.54764 9.97118 3.4002 9.59995 3.4002C9.22873 3.4002 8.87271 3.54763 8.61017 3.81007C8.61016 3.81008 8.61016 3.81009 8.61015 3.8101L1.41019 11.0101L5.92759 13.3999Z" fill="#7D7D7D" stroke="#F5F5F5" stroke-width="0.4"/>
</svg>
