<svg width="24" height="24" viewBox="0 0 24 24" fill="none" xmlns="http://www.w3.org/2000/svg">
<path d="M19.5075 14.49C20.1613 13.2618 20.5022 11.8914 20.5 10.5C20.5 5.8055 16.6945 2 12 2C7.30551 2 3.50001 5.8055 3.50001 10.5C3.49657 12.5051 4.20536 14.4463 5.50001 15.9775L5.51001 15.99C5.51351 15.993 5.51651 15.997 5.51901 16H5.50001L10.544 21.355C10.731 21.5535 10.9566 21.7116 11.2069 21.8197C11.4573 21.9278 11.7271 21.9836 11.9998 21.9836C12.2724 21.9836 12.5422 21.9278 12.7926 21.8197C13.0429 21.7116 13.2685 21.5535 13.4555 21.355L18.5 16H18.481L18.489 15.9905L18.49 15.9895C18.526 15.9465 18.562 15.9035 18.5975 15.8595C18.9443 15.4333 19.2491 14.9749 19.5075 14.49ZM12.0025 13.7495C11.2069 13.7495 10.4438 13.4334 9.88119 12.8708C9.31858 12.3082 9.00251 11.5451 9.00251 10.7495C9.00251 9.95385 9.31858 9.19079 9.88119 8.62818C10.4438 8.06557 11.2069 7.7495 12.0025 7.7495C12.7982 7.7495 13.5612 8.06557 14.1238 8.62818C14.6864 9.19079 15.0025 9.95385 15.0025 10.7495C15.0025 11.5451 14.6864 12.3082 14.1238 12.8708C13.5612 13.4334 12.7982 13.7495 12.0025 13.7495Z" fill="white"/>
</svg>
