<svg width="25" height="24" viewBox="0 0 25 24" fill="none" xmlns="http://www.w3.org/2000/svg">
<path fill-rule="evenodd" clip-rule="evenodd" d="M18.375 4V7H21.375C21.6402 7 21.8946 7.10536 22.0821 7.29289C22.2696 7.48043 22.375 7.73478 22.375 8V18C22.375 18.7956 22.0589 19.5587 21.4963 20.1213C20.9337 20.6839 20.1706 21 19.375 21H5.375C4.57935 21 3.81629 20.6839 3.25368 20.1213C2.69107 19.5587 2.375 18.7956 2.375 18V4C2.375 3.73478 2.48036 3.48043 2.66789 3.29289C2.85543 3.10536 3.10978 3 3.375 3H17.375C17.6402 3 17.8946 3.10536 18.0821 3.29289C18.2696 3.48043 18.375 3.73478 18.375 4ZM20.375 18C20.375 18.2652 20.2696 18.5196 20.0821 18.7071C19.8946 18.8946 19.6402 19 19.375 19C19.1098 19 18.8554 18.8946 18.6679 18.7071C18.4804 18.5196 18.375 18.2652 18.375 18V9H20.375V18ZM6.375 8C6.375 7.73478 6.48036 7.48043 6.66789 7.29289C6.85543 7.10536 7.10978 7 7.375 7H13.375C13.6402 7 13.8946 7.10536 14.0821 7.29289C14.2696 7.48043 14.375 7.73478 14.375 8C14.375 8.26522 14.2696 8.51957 14.0821 8.70711C13.8946 8.89464 13.6402 9 13.375 9H7.375C7.10978 9 6.85543 8.89464 6.66789 8.70711C6.48036 8.51957 6.375 8.26522 6.375 8ZM8.375 12C8.375 11.7348 8.48036 11.4804 8.66789 11.2929C8.85543 11.1054 9.10978 11 9.375 11H13.375C13.6402 11 13.8946 11.1054 14.0821 11.2929C14.2696 11.4804 14.375 11.7348 14.375 12C14.375 12.2652 14.2696 12.5196 14.0821 12.7071C13.8946 12.8946 13.6402 13 13.375 13H9.375C9.10978 13 8.85543 12.8946 8.66789 12.7071C8.48036 12.5196 8.375 12.2652 8.375 12Z" fill="#7D7D7D"/>
</svg>
