<svg width="17" height="18" viewBox="0 0 17 18" fill="none" xmlns="http://www.w3.org/2000/svg">
<path d="M9.31122 14.1569C9.26183 14.1076 9.22264 14.049 9.19591 13.9845C9.16918 13.92 9.15541 13.8509 9.15541 13.7811C9.15541 13.7112 9.16918 13.6421 9.19591 13.5776C9.22264 13.5131 9.26183 13.4545 9.31122 13.4052L13.186 9.53106H2.78083C2.63994 9.53106 2.50481 9.47509 2.40518 9.37546C2.30555 9.27583 2.24958 9.1407 2.24958 8.99981C2.24958 8.85891 2.30555 8.72379 2.40518 8.62416C2.50481 8.52453 2.63994 8.46856 2.78083 8.46856H13.186L9.31122 4.59442C9.21154 4.49473 9.15554 4.35953 9.15554 4.21856C9.15554 4.07758 9.21154 3.94238 9.31122 3.8427C9.41091 3.74301 9.54611 3.68701 9.68708 3.68701C9.82806 3.68701 9.96326 3.74301 10.0629 3.8427L14.8442 8.62395C14.8936 8.67329 14.9328 8.73188 14.9595 8.79637C14.9862 8.86086 15 8.92999 15 8.99981C15 9.06962 14.9862 9.13875 14.9595 9.20324C14.9328 9.26774 14.8936 9.32633 14.8442 9.37567L10.0629 14.1569C10.0136 14.2063 9.95501 14.2455 9.89052 14.2722C9.82603 14.299 9.7569 14.3127 9.68708 14.3127C9.61727 14.3127 9.54814 14.299 9.48364 14.2722C9.41915 14.2455 9.36056 14.2063 9.31122 14.1569Z" fill="#7D7D7D"/>
</svg>
