<svg width="24" height="25" viewBox="0 0 24 25" fill="none" xmlns="http://www.w3.org/2000/svg">
<path d="M19.23 15.7598L16.69 15.4698C16.3913 15.4347 16.0886 15.4678 15.8045 15.5665C15.5205 15.6652 15.2625 15.827 15.05 16.0398L13.21 17.8798C10.3712 16.436 8.06376 14.1286 6.61998 11.2898L8.46998 9.43977C8.89998 9.00977 9.10998 8.40977 9.03998 7.79977L8.74998 5.27977C8.69329 4.79194 8.45917 4.342 8.09222 4.01561C7.72526 3.68923 7.25109 3.50918 6.75998 3.50977H5.02998C3.89998 3.50977 2.95998 4.44977 3.02998 5.57977C3.55998 14.1198 10.39 20.9398 18.92 21.4698C20.05 21.5398 20.99 20.5998 20.99 19.4698V17.7398C21 16.7298 20.24 15.8798 19.23 15.7598Z" fill="white"/>
</svg>
