<svg width="24" height="24" viewBox="0 0 24 24" fill="none" xmlns="http://www.w3.org/2000/svg">
<path d="M18.0724 13.3999L17.7437 13.739L13.4127 18.2076C13.1577 18.4716 13.0166 18.8253 13.0198 19.1924C13.023 19.5594 13.1702 19.9106 13.4298 20.1701C13.6893 20.4297 14.0405 20.5769 14.4075 20.5801C14.7741 20.5833 15.1272 20.4426 15.3911 20.1884L22.5898 12.9897C22.5898 12.9896 22.5898 12.9896 22.5898 12.9896C22.8523 12.7271 22.9997 12.3711 22.9997 11.9999C22.9997 11.6286 22.8523 11.2726 22.5898 11.0101L18.0724 13.3999ZM18.0724 13.3999H17.6H2.40005C2.02875 13.3999 1.67265 13.2524 1.4101 12.9898C1.14755 12.7273 1.00005 12.3712 1.00005 11.9999C1.00005 11.6286 1.14755 11.2725 1.4101 11.0099C1.67265 10.7474 2.02875 10.5999 2.40005 10.5999H17.6H18.0724L17.7437 10.2607L13.4125 5.79186L13.4125 5.79184L13.4103 5.78965C13.1478 5.52711 13.0004 5.17108 13.0004 4.79985C13.0004 4.42864 13.1478 4.07263 13.4102 3.8101C13.6728 3.54764 14.0288 3.4002 14.4 3.4002C14.7713 3.4002 15.1273 3.54763 15.3898 3.81007C15.3898 3.81008 15.3898 3.81009 15.3898 3.8101L22.5898 11.0101L18.0724 13.3999Z" fill="#7D7D7D" stroke="#F5F5F5" stroke-width="0.4"/>
</svg>
