<svg width="25" height="24" viewBox="0 0 25 24" fill="none" xmlns="http://www.w3.org/2000/svg">
<path d="M21.8552 21L15.8552 15M3.85522 10C3.85522 10.9193 4.03629 11.8295 4.38807 12.6788C4.73985 13.5281 5.25547 14.2997 5.90548 14.9497C6.55549 15.5998 7.32716 16.1154 8.17644 16.4672C9.02572 16.8189 9.93597 17 10.8552 17C11.7745 17 12.6847 16.8189 13.534 16.4672C14.3833 16.1154 15.155 15.5998 15.805 14.9497C16.455 14.2997 16.9706 13.5281 17.3224 12.6788C17.6742 11.8295 17.8552 10.9193 17.8552 10C17.8552 9.08075 17.6742 8.1705 17.3224 7.32122C16.9706 6.47194 16.455 5.70026 15.805 5.05025C15.155 4.40024 14.3833 3.88463 13.534 3.53284C12.6847 3.18106 11.7745 3 10.8552 3C9.93597 3 9.02572 3.18106 8.17644 3.53284C7.32716 3.88463 6.55549 4.40024 5.90548 5.05025C5.25547 5.70026 4.73985 6.47194 4.38807 7.32122C4.03629 8.1705 3.85522 9.08075 3.85522 10Z" stroke="#7D7D7D" stroke-width="2" stroke-linecap="round" stroke-linejoin="round"/>
</svg>
