<svg width="24" height="24" viewBox="0 0 24 24" fill="none" xmlns="http://www.w3.org/2000/svg">
<path d="M20.9694 19.4559L20.9694 19.4559L20.9681 19.4536C19.8434 17.5211 18.1034 16.0049 16.017 15.1348C17.0256 14.3505 17.772 13.2866 18.157 12.0798C18.5599 10.8172 18.5468 9.46244 18.1195 8.20756C17.6923 6.95271 16.8727 5.86166 15.7772 5.0887C14.6818 4.31577 13.366 3.9 12.0162 3.9C10.6664 3.9 9.35065 4.31577 8.25525 5.0887C7.15983 5.86166 6.34023 6.95271 5.91297 8.20756C5.4857 9.46244 5.47257 10.8172 5.87544 12.0798C6.26052 13.2866 7.00689 14.3505 8.01545 15.1348C5.92968 16.0047 4.19011 17.5202 3.06536 19.452C2.98789 19.5744 2.93617 19.7109 2.91333 19.8535C2.8904 19.9966 2.8971 20.1429 2.93304 20.2834C2.96898 20.424 3.03339 20.5559 3.12233 20.6714C3.21127 20.7869 3.32291 20.8835 3.45053 20.9557C3.57814 21.0279 3.71917 21.0742 3.86524 21.0919C4.01131 21.1096 4.15953 21.0983 4.30111 21.0588C4.44271 21.0193 4.57486 20.9523 4.68969 20.8616L4.62774 20.7831L4.6897 20.8616C4.80407 20.7713 4.89896 20.6594 4.96865 20.5325C6.46094 18.0083 9.09463 16.5036 12.0162 16.5036C14.9384 16.5036 17.5725 18.0097 19.0647 20.5338L19.0646 20.5339L19.0663 20.5366C19.2175 20.7745 19.4568 20.945 19.7333 21.0128C20.0098 21.0805 20.3024 21.0404 20.5495 20.9007C20.7966 20.7609 20.9791 20.5322 21.0577 20.2623C21.1363 19.9924 21.1045 19.7032 20.9694 19.4559ZM7.78271 10.2029C7.78273 9.38413 8.03074 8.58355 8.49564 7.9024C8.96057 7.22119 9.62163 6.68994 10.3954 6.37614C11.1693 6.06234 12.0209 5.9802 12.8426 6.1402C13.6642 6.3002 14.4186 6.69508 15.0106 7.27459C15.6025 7.85407 16.0053 8.59212 16.1685 9.39527C16.3317 10.1984 16.248 11.0309 15.9278 11.7876C15.6076 12.5443 15.0653 13.1914 14.3691 13.6469C13.6729 14.1023 12.8541 14.3455 12.0164 14.3455C10.8932 14.3443 9.81692 13.9069 9.02339 13.1301C8.22993 12.3533 7.784 11.3005 7.78271 10.2029Z" fill="#B9B9B9" stroke="#B9B9B9" stroke-width="0.2"/>
</svg>
