<svg width="33" height="32" viewBox="0 0 33 32" fill="none" xmlns="http://www.w3.org/2000/svg">
<g clip-path="url(#clip0_293_1862)">
<path fill-rule="evenodd" clip-rule="evenodd" d="M16.5001 2.66699C9.13608 2.66699 3.16675 8.63633 3.16675 16.0003C3.16675 18.5203 3.86675 20.8803 5.08408 22.891L3.89475 26.9337C3.82646 27.1658 3.82197 27.412 3.88174 27.6464C3.94151 27.8809 4.06334 28.0949 4.23443 28.266C4.40551 28.4371 4.61952 28.5589 4.85397 28.6187C5.08842 28.6784 5.33464 28.6739 5.56675 28.6057L9.60941 27.4163C11.6876 28.6738 14.071 29.337 16.5001 29.3337C23.8641 29.3337 29.8334 23.3643 29.8334 16.0003C29.8334 8.63633 23.8641 2.66699 16.5001 2.66699ZM13.4841 19.0177C16.1814 21.7137 18.7561 22.0697 19.6654 22.103C21.0481 22.1537 22.3947 21.0977 22.9187 19.8723C22.9849 19.7199 23.0089 19.5525 22.9883 19.3876C22.9676 19.2227 22.9031 19.0664 22.8014 18.935C22.0707 18.0017 21.0827 17.331 20.1174 16.6643C19.9159 16.525 19.6682 16.4691 19.4263 16.5083C19.1844 16.5476 18.9672 16.679 18.8201 16.875L18.0201 18.095C17.978 18.1606 17.9125 18.2076 17.8369 18.2264C17.7613 18.2453 17.6813 18.2345 17.6134 18.1963C17.0707 17.8857 16.2801 17.3577 15.7121 16.7897C15.1441 16.2217 14.6481 15.467 14.3694 14.959C14.3349 14.8945 14.3249 14.8196 14.3413 14.7482C14.3577 14.6769 14.3995 14.6139 14.4587 14.571L15.6907 13.6563C15.8666 13.5035 15.98 13.2913 16.0095 13.0601C16.039 12.829 15.9825 12.5951 15.8507 12.403C15.2534 11.5283 14.5574 10.4163 13.5481 9.67899C13.4178 9.5846 13.2652 9.52574 13.1053 9.5082C12.9454 9.49067 12.7837 9.51507 12.6361 9.57899C11.4094 10.1043 10.3481 11.451 10.3987 12.8363C10.4321 13.7457 10.7881 16.3203 13.4841 19.0177Z" fill="white"/>
</g>
<defs>
<clipPath id="clip0_293_1862">
<rect width="32" height="32" fill="white" transform="translate(0.5)"/>
</clipPath>
</defs>
</svg>
